<svg width="239" height="36" viewBox="0 0 239 36" fill="none" xmlns="http://www.w3.org/2000/svg">
<path d="M129 33.4856V1.45673C146.252 -0.321334 154.712 2.79149 156.065 16.1369C156.065 32.1513 146.035 35.516 129 33.4856Z" fill="#941C2F" stroke="#941C2F"/>
<path d="M148.293 13.5717C147.922 13.1647 147.482 12.8418 146.997 12.6215C146.512 12.4012 145.993 12.2878 145.468 12.2878C144.943 12.2878 144.423 12.4012 143.939 12.6215C143.454 12.8418 143.013 13.1647 142.642 13.5717L141.872 14.4161L141.103 13.5717C140.353 12.75 139.337 12.2883 138.277 12.2883C137.217 12.2883 136.201 12.75 135.452 13.5717C134.702 14.3935 134.281 15.5081 134.281 16.6703C134.281 17.8325 134.702 18.9471 135.452 19.7689L136.222 20.6133L141.872 26.8105L147.523 20.6133L148.293 19.7689C148.664 19.3621 148.959 18.879 149.16 18.3474C149.361 17.8157 149.464 17.2458 149.464 16.6703C149.464 16.0948 149.361 15.525 149.16 14.9933C148.959 14.4616 148.664 13.9786 148.293 13.5717Z" fill="white" stroke="#941C2F" stroke-width="2" stroke-linecap="round" stroke-linejoin="round"/>
<path d="M1 33.4856V1.45673C18.2523 -0.321334 26.7117 2.79149 28.065 16.1369C28.065 32.1513 18.0352 35.516 1 33.4856Z" fill="#941C2F" stroke="#941C2F"/>
<path d="M20.2933 13.5717C19.9223 13.1647 19.4818 12.8418 18.997 12.6215C18.5122 12.4012 17.9926 12.2878 17.4678 12.2878C16.9431 12.2878 16.4234 12.4012 15.9386 12.6215C15.4538 12.8418 15.0133 13.1647 14.6424 13.5717L13.8724 14.4161L13.1025 13.5717C12.3532 12.75 11.3368 12.2883 10.2771 12.2883C9.2173 12.2883 8.20095 12.75 7.4516 13.5717C6.70224 14.3935 6.28125 15.5081 6.28125 16.6703C6.28125 17.8325 6.70224 18.9471 7.4516 19.7689L8.22152 20.6133L13.8724 26.8105L19.5234 20.6133L20.2933 19.7689C20.6644 19.3621 20.9589 18.879 21.1598 18.3474C21.3606 17.8157 21.464 17.2458 21.464 16.6703C21.464 16.0948 21.3606 15.525 21.1598 14.9933C20.9589 14.4616 20.6644 13.9786 20.2933 13.5717Z" fill="white" stroke="#941C2F" stroke-width="2" stroke-linecap="round" stroke-linejoin="round"/>
<path d="M34.1914 14.918C34.6341 14.3711 35.0833 13.8438 35.5391 13.3359C35.9948 12.8281 36.4701 12.3854 36.9648 12.0078C37.4727 11.6302 38.013 11.3307 38.5859 11.1094C39.1589 10.875 39.7904 10.7578 40.4805 10.7578C41.2096 10.7578 41.8607 10.8359 42.4336 10.9922V13.9609C42.4076 13.9479 42.3359 13.9349 42.2188 13.9219C42.1016 13.9089 41.9518 13.9023 41.7695 13.9023C41.5872 13.8893 41.3789 13.8828 41.1445 13.8828C40.9102 13.8828 40.6758 13.8828 40.4414 13.8828C39.8945 13.8828 39.3542 13.974 38.8203 14.1562C38.2865 14.3385 37.7656 14.5794 37.2578 14.8789C36.763 15.1654 36.2812 15.4974 35.8125 15.875C35.3568 16.2396 34.9271 16.6172 34.5234 17.0078V34H30.8125V11.168H33.6055L34.1914 14.918ZM62.082 32.0273C61.5612 32.4049 60.9688 32.7435 60.3047 33.043C59.6406 33.3294 58.9635 33.5768 58.2734 33.7852C57.5964 33.9805 56.9388 34.1302 56.3008 34.2344C55.6628 34.3385 55.1159 34.3906 54.6602 34.3906C52.9414 34.3906 51.4375 34.1042 50.1484 33.5312C48.8724 32.9583 47.8112 32.1576 46.9648 31.1289C46.1185 30.0872 45.4805 28.8568 45.0508 27.4375C44.6341 26.0052 44.4258 24.4297 44.4258 22.7109C44.4258 21.1615 44.6276 19.6706 45.0312 18.2383C45.4479 16.793 46.0599 15.5169 46.8672 14.4102C47.6745 13.3034 48.6771 12.418 49.875 11.7539C51.0729 11.0898 52.4661 10.7578 54.0547 10.7578C55.5391 10.7578 56.8411 10.9857 57.9609 11.4414C59.0938 11.8841 60.0443 12.5286 60.8125 13.375C61.5807 14.2214 62.1602 15.2565 62.5508 16.4805C62.9414 17.7044 63.1367 19.0911 63.1367 20.6406C63.1367 21.0573 63.1237 21.4609 63.0977 21.8516C63.0716 22.2292 63.0326 22.5872 62.9805 22.9258H48.1367C48.1367 24.5534 48.293 25.9271 48.6055 27.0469C48.918 28.1667 49.3672 29.0716 49.9531 29.7617C50.5391 30.4518 51.2552 30.9531 52.1016 31.2656C52.9479 31.5651 53.9049 31.7148 54.9727 31.7148C55.5977 31.7148 56.1706 31.6693 56.6914 31.5781C57.2122 31.474 57.7005 31.3307 58.1562 31.1484C58.625 30.9531 59.0742 30.7122 59.5039 30.4258C59.9466 30.1393 60.4023 29.8073 60.8711 29.4297L62.082 32.0273ZM59.8555 19.9961C59.8555 18.9544 59.7253 18.0299 59.4648 17.2227C59.2044 16.4023 58.8398 15.7122 58.3711 15.1523C57.9023 14.5924 57.3424 14.1693 56.6914 13.8828C56.0534 13.5833 55.3503 13.4336 54.582 13.4336C53.5534 13.4336 52.6549 13.6224 51.8867 14C51.1185 14.3776 50.4674 14.8919 49.9336 15.543C49.4128 16.194 49.0026 16.9622 48.7031 17.8477C48.4167 18.7201 48.2279 19.6641 48.1367 20.6797H59.8555V19.9961ZM76.7109 13.4336C76.125 13.4336 75.5065 13.4857 74.8555 13.5898C74.2174 13.694 73.5794 13.8503 72.9414 14.0586C72.3164 14.2539 71.7044 14.5013 71.1055 14.8008C70.5195 15.0872 69.9857 15.4193 69.5039 15.7969L68.1758 13.2188C68.918 12.8151 69.6081 12.4635 70.2461 12.1641C70.8841 11.8516 71.5286 11.5911 72.1797 11.3828C72.8438 11.1745 73.5339 11.0182 74.25 10.9141C74.9792 10.8099 75.7995 10.7578 76.7109 10.7578C78.6771 10.7578 80.2461 10.9727 81.418 11.4023C82.6029 11.832 83.5013 12.4961 84.1133 13.3945C84.7383 14.293 85.1419 15.4388 85.3242 16.832C85.5195 18.2253 85.6172 19.8854 85.6172 21.8125V34H82.8828L82.3359 30.5234C81.3724 31.8776 80.2266 32.8607 78.8984 33.4727C77.5703 34.0846 76.0794 34.3906 74.4258 34.3906C73.2539 34.3906 72.1927 34.2409 71.2422 33.9414C70.3047 33.6419 69.5039 33.1992 68.8398 32.6133C68.1758 32.0143 67.6615 31.2721 67.2969 30.3867C66.9453 29.5013 66.7695 28.4727 66.7695 27.3008C66.7695 26.168 66.9844 25.1523 67.4141 24.2539C67.8438 23.3555 68.4232 22.5938 69.1523 21.9688C69.8815 21.3438 70.7279 20.8685 71.6914 20.543C72.6549 20.2044 73.6706 20.0352 74.7383 20.0352C75.806 20.0352 76.776 20.0872 77.6484 20.1914C78.5339 20.2956 79.2891 20.4128 79.9141 20.543C80.5521 20.6602 81.0469 20.7708 81.3984 20.875L81.9062 21.0117C81.9062 19.6706 81.8802 18.5182 81.8281 17.5547C81.776 16.5911 81.5872 15.8099 81.2617 15.2109C80.9362 14.599 80.4219 14.1497 79.7188 13.8633C79.0156 13.5768 78.013 13.4336 76.7109 13.4336ZM75.3438 31.7148C76.5286 31.7148 77.6484 31.4609 78.7031 30.9531C79.7708 30.4453 80.8385 29.6966 81.9062 28.707V22.8867C81.3594 22.8086 80.8255 22.7435 80.3047 22.6914C79.849 22.6393 79.3607 22.5938 78.8398 22.5547C78.319 22.5026 77.8307 22.4766 77.375 22.4766C76.4375 22.4766 75.5521 22.5286 74.7188 22.6328C73.8854 22.724 73.1562 22.9323 72.5312 23.2578C71.9062 23.5833 71.4115 24.0521 71.0469 24.6641C70.6823 25.276 70.5 26.0898 70.5 27.1055C70.5 28.0169 70.6172 28.7721 70.8516 29.3711C71.0859 29.957 71.4115 30.4258 71.8281 30.7773C72.2578 31.1289 72.7656 31.3763 73.3516 31.5195C73.9505 31.6497 74.6146 31.7148 75.3438 31.7148ZM94.7578 34H91.0469V11.168H93.8008L94.3281 15.1914C94.7448 14.5143 95.2201 13.9023 95.7539 13.3555C96.3008 12.8086 96.8997 12.3464 97.5508 11.9688C98.2148 11.5781 98.918 11.2786 99.6602 11.0703C100.415 10.862 101.21 10.7578 102.043 10.7578C102.876 10.7578 103.632 10.875 104.309 11.1094C104.986 11.3307 105.585 11.6367 106.105 12.0273C106.626 12.418 107.062 12.8802 107.414 13.4141C107.779 13.9349 108.065 14.5013 108.273 15.1133C108.716 14.4622 109.243 13.8698 109.855 13.3359C110.467 12.8021 111.125 12.3464 111.828 11.9688C112.544 11.5781 113.293 11.2786 114.074 11.0703C114.868 10.862 115.669 10.7578 116.477 10.7578C117.622 10.7578 118.625 10.9661 119.484 11.3828C120.357 11.7995 121.086 12.3789 121.672 13.1211C122.258 13.8503 122.694 14.7227 122.98 15.7383C123.28 16.7409 123.43 17.8411 123.43 19.0391V34H119.719V19C119.719 17.8281 119.615 16.8776 119.406 16.1484C119.211 15.4193 118.938 14.8594 118.586 14.4688C118.247 14.0651 117.844 13.7917 117.375 13.6484C116.919 13.5052 116.438 13.4336 115.93 13.4336C114.732 13.4336 113.553 13.7591 112.395 14.4102C111.249 15.0612 110.07 16.0052 108.859 17.2422V34H105.148V19C105.148 18.1016 105.09 17.3073 104.973 16.6172C104.855 15.9271 104.654 15.3477 104.367 14.8789C104.094 14.3971 103.716 14.0391 103.234 13.8047C102.753 13.5573 102.141 13.4336 101.398 13.4336C100.37 13.4336 99.3086 13.7591 98.2148 14.4102C97.1341 15.0482 95.9818 15.9792 94.7578 17.2031V34ZM168.078 13.4336C167.492 13.4336 166.874 13.4857 166.223 13.5898C165.585 13.694 164.947 13.8503 164.309 14.0586C163.684 14.2539 163.072 14.5013 162.473 14.8008C161.887 15.0872 161.353 15.4193 160.871 15.7969L159.543 13.2188C160.285 12.8151 160.975 12.4635 161.613 12.1641C162.251 11.8516 162.896 11.5911 163.547 11.3828C164.211 11.1745 164.901 11.0182 165.617 10.9141C166.346 10.8099 167.167 10.7578 168.078 10.7578C170.044 10.7578 171.613 10.9727 172.785 11.4023C173.97 11.832 174.868 12.4961 175.48 13.3945C176.105 14.293 176.509 15.4388 176.691 16.832C176.887 18.2253 176.984 19.8854 176.984 21.8125V34H174.25L173.703 30.5234C172.74 31.8776 171.594 32.8607 170.266 33.4727C168.938 34.0846 167.447 34.3906 165.793 34.3906C164.621 34.3906 163.56 34.2409 162.609 33.9414C161.672 33.6419 160.871 33.1992 160.207 32.6133C159.543 32.0143 159.029 31.2721 158.664 30.3867C158.312 29.5013 158.137 28.4727 158.137 27.3008C158.137 26.168 158.352 25.1523 158.781 24.2539C159.211 23.3555 159.79 22.5938 160.52 21.9688C161.249 21.3438 162.095 20.8685 163.059 20.543C164.022 20.2044 165.038 20.0352 166.105 20.0352C167.173 20.0352 168.143 20.0872 169.016 20.1914C169.901 20.2956 170.656 20.4128 171.281 20.543C171.919 20.6602 172.414 20.7708 172.766 20.875L173.273 21.0117C173.273 19.6706 173.247 18.5182 173.195 17.5547C173.143 16.5911 172.954 15.8099 172.629 15.2109C172.303 14.599 171.789 14.1497 171.086 13.8633C170.383 13.5768 169.38 13.4336 168.078 13.4336ZM166.711 31.7148C167.896 31.7148 169.016 31.4609 170.07 30.9531C171.138 30.4453 172.206 29.6966 173.273 28.707V22.8867C172.727 22.8086 172.193 22.7435 171.672 22.6914C171.216 22.6393 170.728 22.5938 170.207 22.5547C169.686 22.5026 169.198 22.4766 168.742 22.4766C167.805 22.4766 166.919 22.5286 166.086 22.6328C165.253 22.724 164.523 22.9323 163.898 23.2578C163.273 23.5833 162.779 24.0521 162.414 24.6641C162.049 25.276 161.867 26.0898 161.867 27.1055C161.867 28.0169 161.984 28.7721 162.219 29.3711C162.453 29.957 162.779 30.4258 163.195 30.7773C163.625 31.1289 164.133 31.3763 164.719 31.5195C165.318 31.6497 165.982 31.7148 166.711 31.7148ZM189.074 34.3906C187.928 34.3906 187.01 34.2018 186.32 33.8242C185.63 33.4336 185.103 32.8672 184.738 32.125C184.374 31.3698 184.133 30.4388 184.016 29.332C183.898 28.2122 183.84 26.9232 183.84 25.4648V13.1992H180.266V11.168H183.898L184.387 4.11719L187.551 3.21875V11.168H194.055V13.1992H187.551V28.2383C187.551 28.9414 187.583 29.5208 187.648 29.9766C187.727 30.4193 187.85 30.7708 188.02 31.0312C188.189 31.2917 188.41 31.474 188.684 31.5781C188.97 31.6693 189.322 31.7148 189.738 31.7148C190.207 31.7148 190.747 31.5846 191.359 31.3242C191.984 31.0508 192.824 30.6211 193.879 30.0352L195.188 32.4375C194.042 33.1406 192.974 33.6419 191.984 33.9414C190.995 34.2409 190.025 34.3906 189.074 34.3906ZM215.949 32.0273C215.428 32.4049 214.836 32.7435 214.172 33.043C213.508 33.3294 212.831 33.5768 212.141 33.7852C211.464 33.9805 210.806 34.1302 210.168 34.2344C209.53 34.3385 208.983 34.3906 208.527 34.3906C206.809 34.3906 205.305 34.1042 204.016 33.5312C202.74 32.9583 201.678 32.1576 200.832 31.1289C199.986 30.0872 199.348 28.8568 198.918 27.4375C198.501 26.0052 198.293 24.4297 198.293 22.7109C198.293 21.1615 198.495 19.6706 198.898 18.2383C199.315 16.793 199.927 15.5169 200.734 14.4102C201.542 13.3034 202.544 12.418 203.742 11.7539C204.94 11.0898 206.333 10.7578 207.922 10.7578C209.406 10.7578 210.708 10.9857 211.828 11.4414C212.961 11.8841 213.911 12.5286 214.68 13.375C215.448 14.2214 216.027 15.2565 216.418 16.4805C216.809 17.7044 217.004 19.0911 217.004 20.6406C217.004 21.0573 216.991 21.4609 216.965 21.8516C216.939 22.2292 216.9 22.5872 216.848 22.9258H202.004C202.004 24.5534 202.16 25.9271 202.473 27.0469C202.785 28.1667 203.234 29.0716 203.82 29.7617C204.406 30.4518 205.122 30.9531 205.969 31.2656C206.815 31.5651 207.772 31.7148 208.84 31.7148C209.465 31.7148 210.038 31.6693 210.559 31.5781C211.079 31.474 211.568 31.3307 212.023 31.1484C212.492 30.9531 212.941 30.7122 213.371 30.4258C213.814 30.1393 214.27 29.8073 214.738 29.4297L215.949 32.0273ZM213.723 19.9961C213.723 18.9544 213.592 18.0299 213.332 17.2227C213.072 16.4023 212.707 15.7122 212.238 15.1523C211.77 14.5924 211.21 14.1693 210.559 13.8828C209.921 13.5833 209.217 13.4336 208.449 13.4336C207.421 13.4336 206.522 13.6224 205.754 14C204.986 14.3776 204.335 14.8919 203.801 15.543C203.28 16.194 202.87 16.9622 202.57 17.8477C202.284 18.7201 202.095 19.6641 202.004 20.6797H213.723V19.9961ZM225.266 22.5938C224.602 22.3594 223.977 22.0729 223.391 21.7344C222.805 21.3828 222.297 20.9727 221.867 20.5039C221.438 20.0221 221.099 19.4753 220.852 18.8633C220.604 18.2513 220.48 17.5612 220.48 16.793C220.48 15.7773 220.689 14.8919 221.105 14.1367C221.535 13.3685 222.102 12.737 222.805 12.2422C223.508 11.7474 224.309 11.3763 225.207 11.1289C226.105 10.8815 227.036 10.7578 228 10.7578C228.859 10.7578 229.693 10.8424 230.5 11.0117C231.32 11.181 232.069 11.3893 232.746 11.6367C233.436 11.8841 234.035 12.151 234.543 12.4375C235.051 12.7109 235.435 12.9518 235.695 13.1602L234.484 15.6211C233.69 15.0091 232.759 14.4948 231.691 14.0781C230.637 13.6484 229.491 13.4336 228.254 13.4336C227.486 13.4336 226.809 13.5247 226.223 13.707C225.65 13.8763 225.168 14.1107 224.777 14.4102C224.387 14.6966 224.094 15.0286 223.898 15.4062C223.703 15.7839 223.605 16.181 223.605 16.5977C223.605 17.3268 223.885 17.9258 224.445 18.3945C225.018 18.8503 225.806 19.2539 226.809 19.6055L230.09 20.7578C231.092 21.1094 231.997 21.4935 232.805 21.9102C233.625 22.3268 234.322 22.8086 234.895 23.3555C235.48 23.9023 235.93 24.5273 236.242 25.2305C236.568 25.9336 236.73 26.7409 236.73 27.6523C236.73 28.4727 236.587 29.2865 236.301 30.0938C236.027 30.901 235.572 31.6237 234.934 32.2617C234.309 32.8997 233.488 33.4206 232.473 33.8242C231.457 34.2148 230.207 34.4102 228.723 34.4102C227.707 34.4102 226.763 34.319 225.891 34.1367C225.031 33.9544 224.263 33.7396 223.586 33.4922C222.909 33.2318 222.323 32.9648 221.828 32.6914C221.333 32.4049 220.949 32.1641 220.676 31.9688L221.906 29.4883C222.193 29.7227 222.577 29.9701 223.059 30.2305C223.553 30.4909 224.094 30.7318 224.68 30.9531C225.279 31.1745 225.897 31.3568 226.535 31.5C227.173 31.6432 227.785 31.7148 228.371 31.7148C228.801 31.7148 229.302 31.6628 229.875 31.5586C230.461 31.4544 231.008 31.2656 231.516 30.9922C232.036 30.7188 232.473 30.3411 232.824 29.8594C233.189 29.3776 233.371 28.7656 233.371 28.0234C233.371 27.5026 233.28 27.0469 233.098 26.6562C232.915 26.2526 232.655 25.901 232.316 25.6016C231.991 25.2891 231.6 25.0156 231.145 24.7812C230.689 24.5469 230.188 24.332 229.641 24.1367L225.266 22.5938Z" fill="#941C2F"/>
</svg>
