<svg width="29" height="29" viewBox="0 0 29 29" fill="none" xmlns="http://www.w3.org/2000/svg">
<path d="M22.9583 3.625H6.04167C4.70698 3.625 3.625 4.70698 3.625 6.04167V22.9583C3.625 24.293 4.70698 25.375 6.04167 25.375H22.9583C24.293 25.375 25.375 24.293 25.375 22.9583V6.04167C25.375 4.70698 24.293 3.625 22.9583 3.625Z" stroke="black" stroke-width="2" stroke-linecap="round" stroke-linejoin="round"/>
<path d="M10.2708 12.0835C11.2718 12.0835 12.0833 11.272 12.0833 10.271C12.0833 9.26998 11.2718 8.4585 10.2708 8.4585C9.26974 8.4585 8.45825 9.26998 8.45825 10.271C8.45825 11.272 9.26974 12.0835 10.2708 12.0835Z" stroke="black" stroke-width="2" stroke-linecap="round" stroke-linejoin="round"/>
<path d="M25.3751 18.1252L19.3334 12.0835L6.04175 25.3752" stroke="black" stroke-width="2" stroke-linecap="round" stroke-linejoin="round"/>
</svg>
