<svg width="36" height="36" viewBox="0 0 36 36" fill="none" xmlns="http://www.w3.org/2000/svg">
<circle cx="18" cy="18" r="17.5" fill="#FFC7D0" stroke="black"/>
<path d="M27.19 10.9513C26.6798 10.4468 26.0741 10.0466 25.4073 9.77357C24.7406 9.50052 24.026 9.35999 23.3043 9.35999C22.5826 9.35999 21.868 9.50052 21.2013 9.77357C20.5346 10.0466 19.9288 10.4468 19.4186 10.9513L18.3598 11.9978L17.3009 10.9513C16.2704 9.93274 14.8727 9.36051 13.4153 9.36051C11.9578 9.36051 10.5601 9.93274 9.52955 10.9513C8.499 11.9699 7.92004 13.3514 7.92004 14.7919C7.92004 16.2323 8.499 17.6138 9.52955 18.6324L10.5884 19.6789L18.3598 27.36L26.1312 19.6789L27.19 18.6324C27.7004 18.1281 28.1053 17.5294 28.3816 16.8704C28.6579 16.2115 28.8 15.5052 28.8 14.7919C28.8 14.0786 28.6579 13.3722 28.3816 12.7133C28.1053 12.0543 27.7004 11.4556 27.19 10.9513Z" fill="#941C2F" stroke="#941C2F" stroke-width="2" stroke-linecap="round" stroke-linejoin="round"/>
</svg>
