<svg width="31" height="27" viewBox="0 0 31 27" fill="none" xmlns="http://www.w3.org/2000/svg">
<path d="M28.3919 2.72289C27.6471 1.97769 26.7627 1.38654 25.7893 0.983224C24.8159 0.579904 23.7726 0.372314 22.719 0.372314C21.6654 0.372314 20.6221 0.579904 19.6487 0.983224C18.6753 1.38654 17.7909 1.97769 17.0461 2.72289L15.5003 4.26873L13.9544 2.72289C12.4499 1.21834 10.4093 0.373094 8.2815 0.373094C6.15375 0.373094 4.11314 1.21834 2.60859 2.72289C1.10404 4.22744 0.258789 6.26805 0.258789 8.39581C0.258789 10.5236 1.10404 12.5642 2.60859 14.0687L4.15442 15.6146L15.5003 26.9604L26.8461 15.6146L28.3919 14.0687C29.1371 13.3239 29.7283 12.4395 30.1316 11.4661C30.5349 10.4927 30.7425 9.44944 30.7425 8.39581C30.7425 7.34218 30.5349 6.29888 30.1316 5.3255C29.7283 4.35212 29.1371 3.46775 28.3919 2.72289Z" fill="black"/>
</svg>
